<mxfile host="app.diagrams.net" modified="2023-04-21T15:22:02.214Z" agent="Mozilla/5.0 (Windows NT 10.0; Win64; x64) AppleWebKit/537.36 (KHTML, like Gecko) Chrome/112.0.0.0 Safari/537.36 Edg/112.0.1722.48" version="21.2.1" etag="AKXKhsfKFZjQOTkIBp8t" type="github">
  <diagram name="PÃ¡gina-1" id="Tm0cJkJgB7LHCvZ1oBnt">
    <mxGraphModel>
      <root>
        <mxCell id="0" />
        <mxCell id="1" parent="0" />
        <mxCell id="2" value="Monitoring" style="whiteSpace=wrap;strokeWidth=2;verticalAlign=top;" vertex="1" parent="1">
          <mxGeometry width="346" height="168" as="geometry" />
        </mxCell>
        <mxCell id="3" value="Infrastructure monitoring" style="whiteSpace=wrap;strokeWidth=2;" vertex="1" parent="2">
          <mxGeometry x="83" y="117" width="197" height="34" as="geometry" />
        </mxCell>
        <mxCell id="4" value="Application performance monitoring" style="whiteSpace=wrap;strokeWidth=2;" vertex="1" parent="2">
          <mxGeometry x="43" y="33" width="276" height="34" as="geometry" />
        </mxCell>
        <mxCell id="5" value="" style="curved=1;startArrow=none;endArrow=block;exitX=0.5001132246376812;exitY=1;entryX=0.4976205583756345;entryY=0;" edge="1" parent="2" source="4" target="3">
          <mxGeometry relative="1" as="geometry">
            <Array as="points" />
          </mxGeometry>
        </mxCell>
        <mxCell id="6" value="Integration" style="whiteSpace=wrap;strokeWidth=2;verticalAlign=top;" vertex="1" parent="1">
          <mxGeometry x="24" y="218" width="298" height="252" as="geometry" />
        </mxCell>
        <mxCell id="7" value="Microservices" style="whiteSpace=wrap;strokeWidth=2;" vertex="1" parent="6">
          <mxGeometry x="101" y="201" width="112" height="34" as="geometry" />
        </mxCell>
        <mxCell id="8" value="APIs" style="whiteSpace=wrap;strokeWidth=2;" vertex="1" parent="6">
          <mxGeometry x="134" y="33" width="46" height="34" as="geometry" />
        </mxCell>
        <mxCell id="9" value="Service-oriented Architecture" style="whiteSpace=wrap;strokeWidth=2;" vertex="1" parent="6">
          <mxGeometry x="43" y="117" width="228" height="34" as="geometry" />
        </mxCell>
        <mxCell id="10" value="" style="curved=1;startArrow=none;endArrow=block;exitX=0.4945652173913043;exitY=1;entryX=0.49890350877192985;entryY=0;" edge="1" parent="6" source="8" target="9">
          <mxGeometry relative="1" as="geometry">
            <Array as="points" />
          </mxGeometry>
        </mxCell>
        <mxCell id="11" value="" style="curved=1;startArrow=none;endArrow=block;exitX=0.49890350877192985;exitY=1;entryX=0.49776785714285715;entryY=0;" edge="1" parent="6" source="9" target="7">
          <mxGeometry relative="1" as="geometry">
            <Array as="points" />
          </mxGeometry>
        </mxCell>
        <mxCell id="12" value="Deployment" style="whiteSpace=wrap;strokeWidth=2;verticalAlign=top;" vertex="1" parent="1">
          <mxGeometry x="65" y="520" width="217" height="336" as="geometry" />
        </mxCell>
        <mxCell id="13" value="Database server" style="whiteSpace=wrap;strokeWidth=2;" vertex="1" parent="12">
          <mxGeometry x="51" y="285" width="130" height="34" as="geometry" />
        </mxCell>
        <mxCell id="14" value="Cloud" style="whiteSpace=wrap;strokeWidth=2;" vertex="1" parent="12">
          <mxGeometry x="89" y="33" width="56" height="34" as="geometry" />
        </mxCell>
        <mxCell id="15" value="Virtual Machines" style="whiteSpace=wrap;strokeWidth=2;" vertex="1" parent="12">
          <mxGeometry x="49" y="117" width="134" height="34" as="geometry" />
        </mxCell>
        <mxCell id="16" value="Application server" style="whiteSpace=wrap;strokeWidth=2;" vertex="1" parent="12">
          <mxGeometry x="43" y="201" width="147" height="34" as="geometry" />
        </mxCell>
        <mxCell id="17" value="" style="curved=1;startArrow=none;endArrow=block;exitX=0.4903041294642857;exitY=1;entryX=0.5034106809701493;entryY=0;" edge="1" parent="12" source="14" target="15">
          <mxGeometry relative="1" as="geometry">
            <Array as="points" />
          </mxGeometry>
        </mxCell>
        <mxCell id="18" value="" style="curved=1;startArrow=none;endArrow=block;exitX=0.5034106809701493;exitY=1;entryX=0.4997076955782313;entryY=0;" edge="1" parent="12" source="15" target="16">
          <mxGeometry relative="1" as="geometry">
            <Array as="points" />
          </mxGeometry>
        </mxCell>
        <mxCell id="19" value="" style="curved=1;startArrow=none;endArrow=block;exitX=0.4997076955782313;exitY=1;entryX=0.503515625;entryY=0;" edge="1" parent="12" source="16" target="13">
          <mxGeometry relative="1" as="geometry">
            <Array as="points" />
          </mxGeometry>
        </mxCell>
        <mxCell id="20" value="System" style="whiteSpace=wrap;strokeWidth=2;verticalAlign=top;" vertex="1" parent="1">
          <mxGeometry x="78" y="906" width="189" height="252" as="geometry" />
        </mxCell>
        <mxCell id="21" value="Data Layer" style="whiteSpace=wrap;strokeWidth=2;" vertex="1" parent="20">
          <mxGeometry x="56" y="201" width="93" height="34" as="geometry" />
        </mxCell>
        <mxCell id="22" value="UI Layer" style="whiteSpace=wrap;strokeWidth=2;" vertex="1" parent="20">
          <mxGeometry x="65" y="33" width="75" height="34" as="geometry" />
        </mxCell>
        <mxCell id="23" value="Business Layer" style="whiteSpace=wrap;strokeWidth=2;" vertex="1" parent="20">
          <mxGeometry x="43" y="117" width="119" height="34" as="geometry" />
        </mxCell>
        <mxCell id="24" value="" style="curved=1;startArrow=none;endArrow=block;exitX=0.5013541666666667;exitY=1;entryX=0.5008534663865546;entryY=0;" edge="1" parent="20" source="22" target="23">
          <mxGeometry relative="1" as="geometry">
            <Array as="points" />
          </mxGeometry>
        </mxCell>
        <mxCell id="25" value="" style="curved=1;startArrow=none;endArrow=block;exitX=0.5008534663865546;exitY=1;entryX=0.5010920698924731;entryY=0;" edge="1" parent="20" source="23" target="21">
          <mxGeometry relative="1" as="geometry">
            <Array as="points" />
          </mxGeometry>
        </mxCell>
      </root>
    </mxGraphModel>
  </diagram>
</mxfile>
